<svg xmlns="http://www.w3.org/2000/svg" width="114" height="33" viewBox="0 0 114 33">
    <g fill="none" fill-rule="evenodd">
        <path fill="#1D5748" fill-rule="nonzero" d="M41.983 25.607V6.04h2.715v19.567h-2.715zm7.955-9.764c0-5.382 3.671-10.264 9.599-10.264 5.277 0 8.337 3.537 9.102 7.42h-2.754c-.803-3.038-3.021-4.96-6.348-4.96-4.092 0-6.846 3.268-6.846 7.804 0 4.497 2.754 7.765 6.846 7.765 3.327 0 5.545-1.922 6.348-4.96h2.754c-.765 3.883-3.825 7.42-9.102 7.42-5.928 0-9.6-4.882-9.6-10.225zm40.729.769H74.49c.268 3.959 2.83 6.996 6.922 6.996 2.983 0 5.278-1.73 6.119-4.113h2.83c-1.147 3.728-4.36 6.573-8.987 6.573-6.157 0-9.6-4.767-9.6-10.264 0-5.42 3.71-10.225 9.562-10.225 5.813 0 9.37 4.46 9.37 9.995 0 .422-.04 1.038-.04 1.038zm-9.331-8.573c-3.787 0-6.31 2.73-6.77 6.343H87.99c-.344-3.767-2.83-6.343-6.654-6.343zm32.277-1.999v19.567h-2.6v-3.614c-1.34 2.499-3.825 4.075-7.382 4.075-5.966 0-9.178-4.844-9.178-10.225 0-5.382 3.212-10.264 9.178-10.264 3.557 0 6.043 1.576 7.381 4.075V6.04h2.6zm-16.406 9.803c0 4.267 2.6 7.765 6.96 7.765 4.36 0 6.845-3.498 6.845-7.765 0-4.267-2.485-7.804-6.845-7.804-4.36 0-6.96 3.537-6.96 7.804z"/>
        <path fill="#009368" d="M13.173 27.402a2.8 2.8 0 0 1 3.96.01 2.8 2.8 0 0 1 .01 3.96 2.8 2.8 0 0 1-3.96-.01 2.8 2.8 0 0 1-.01-3.96zm6.911-6.911a2.8 2.8 0 0 1 3.96.01 2.8 2.8 0 0 1 .01 3.96 2.8 2.8 0 0 1-3.96-.01 2.8 2.8 0 0 1-.01-3.96zm6.911-6.912a2.8 2.8 0 0 1 3.96.01 2.8 2.8 0 0 1 .01 3.96 2.8 2.8 0 0 1-3.96-.01 2.8 2.8 0 0 1-.01-3.96zm-20.77 6.876a2.8 2.8 0 0 1 3.96.01 2.8 2.8 0 0 1 .01 3.96 2.8 2.8 0 0 1-3.96-.01 2.8 2.8 0 0 1-.01-3.96zm7.557-6.266a1.89 1.89 0 0 1 2.673.007c.74.74.743 1.936.007 2.672a1.89 1.89 0 0 1-2.673-.007 1.89 1.89 0 0 1-.007-2.672zm6.911-6.911a1.89 1.89 0 0 1 2.673.006c.74.74.743 1.937.007 2.673A1.89 1.89 0 0 1 20.7 9.95a1.89 1.89 0 0 1-.007-2.672zM.403 14.633a1.26 1.26 0 0 1 1.782.005 1.26 1.26 0 0 1 .005 1.781 1.26 1.26 0 0 1-1.782-.004 1.26 1.26 0 0 1-.004-1.782zm6.912-6.911a1.26 1.26 0 0 1 1.782.004A1.26 1.26 0 0 1 9.1 9.508a1.26 1.26 0 0 1-1.781-.005 1.26 1.26 0 0 1-.005-1.781zM14.226.81a1.26 1.26 0 0 1 1.782.005 1.26 1.26 0 0 1 .005 1.782 1.26 1.26 0 0 1-1.782-.005A1.26 1.26 0 0 1 14.226.81z"/>
    </g>
</svg>
