<svg xmlns="http://www.w3.org/2000/svg" width="19" height="18" viewBox="0 0 19 18">
    <g fill="#FFF" fill-rule="nonzero">
        <path d="M11.875 5.542H3.958a.792.792 0 0 0-.791.791v7.917H4.75V7.125h3.167V9.5H9.5V7.125h1.583v5.542H7.917v-1.584H6.333v2.375c0 .438.355.792.792.792h4.75a.792.792 0 0 0 .792-.792V6.333a.792.792 0 0 0-.792-.791z"/>
        <path d="M15.833 0h-.791a.792.792 0 0 0-.792.792v11.083c0 .437.354.792.792.792h.791a1.583 1.583 0 0 1 1.562 1.851 1.646 1.646 0 0 1-1.651 1.315H1.584V3.958h11.083V2.375H.792A.792.792 0 0 0 0 3.167v13.458c0 .437.354.792.792.792h15.041a3.173 3.173 0 0 0 3.067-2.375h.1V3.167A3.167 3.167 0 0 0 15.833 0z"/>
    </g>
</svg>
