<svg xmlns="http://www.w3.org/2000/svg" width="24" height="22" viewBox="0 0 24 22">
    <g fill="#FFF" fill-rule="nonzero" transform="translate(-1)">
        <path d="M17.536 12.41a1 1 0 0 0-1.414 1.414l2.82 2.82-1.317 1.317-2.82-2.82a1 1 0 1 0-1.414 1.414l2.557 2.558c-.72.3-1.502.43-2.281.377a3.565 3.565 0 0 1-.8 1.923c.375.064.755.097 1.135.1a6.983 6.983 0 0 0 4.95-2.047l2.108-2.136a1 1 0 0 0-.006-1.411l-3.518-3.509zM2.821 11.856c.298-.29.644-.528 1.023-.7a6.052 6.052 0 0 1 6.238-9.066l.433-.433A9.188 9.188 0 0 1 11.9.517 8.068 8.068 0 0 0 2.321 12.5c.142-.233.31-.449.5-.644z"/>
        <rect width="11.894" height="5.222" x="1.786" y="14.158" rx="2.611" transform="rotate(45 7.733 16.769)"/>
        <path d="M22.636 2.364a8.071 8.071 0 0 0-11.414 0L6.585 7l.708.707a3.125 3.125 0 0 0 4.414 0L13.5 5.916l8.424 8.576.714-.714a8.071 8.071 0 0 0 0-11.414h-.002z"/>
    </g>
</svg>
