<svg xmlns="http://www.w3.org/2000/svg" width="21" height="21" viewBox="0 0 21 21">
    <path fill="#1D5748" fill-rule="evenodd" d="M20.667 1.468v18.064c0 .303-.106.567-.318.794-.212.227-.484.34-.817.34h-5.174V12.77h2.632l.409-3.04h-3.041V7.776c0-.515.09-.878.272-1.09.242-.272.65-.408 1.226-.408h1.634V3.51a25.57 25.57 0 0 0-2.36-.09c-1.18 0-2.134.348-2.86 1.044-.726.695-1.09 1.694-1.09 2.995v2.27H8.549v3.04h2.633v7.898H1.468c-.333 0-.605-.114-.817-.34a1.127 1.127 0 0 1-.318-.795V1.468c0-.333.106-.605.318-.817.212-.212.484-.318.817-.318h18.064c.303 0 .567.106.794.318.227.212.34.484.34.817z"/>
</svg>
