<svg xmlns="http://www.w3.org/2000/svg" width="28" height="17" viewBox="0 0 28 17">
    <path fill="#009368" fill-rule="nonzero" d="M17.261 7.27c.089.5.133.97.133 1.412 0 1.62-.339 3.054-1.016 4.305a7.345 7.345 0 0 1-2.87 2.937c-1.236.706-2.649 1.06-4.239 1.06a8.3 8.3 0 0 1-4.26-1.149 8.414 8.414 0 0 1-3.091-3.09 8.305 8.305 0 0 1-1.126-4.24c0-1.53.375-2.943 1.126-4.238a8.414 8.414 0 0 1 3.09-3.091A8.3 8.3 0 0 1 9.27.028c2.208 0 4.092.736 5.652 2.208l-2.296 2.207c-.883-.853-2.002-1.28-3.356-1.28-.942 0-1.817.235-2.627.706a5.179 5.179 0 0 0-1.92 1.943 5.336 5.336 0 0 0-.707 2.694c0 .97.235 1.869.706 2.693a5.179 5.179 0 0 0 1.921 1.943c.81.47 1.685.706 2.627.706 1.03 0 1.929-.22 2.694-.662a4.08 4.08 0 0 0 1.501-1.501c.324-.5.53-.986.618-1.457H9.27V7.269h7.992zm8.17.308h2.472v2.473H25.43v2.473h-2.473V10.05H20.53V7.578h2.428V5.106h2.473v2.472z"/>
</svg>
