<svg xmlns="http://www.w3.org/2000/svg" width="21" height="21" viewBox="0 0 21 21">
    <path fill="#27143e" fill-rule="nonzero" d="M19.214.333c.394 0 .734.144 1.021.432.288.287.432.627.432 1.02v17.43c0 .393-.144.733-.432 1.02a1.396 1.396 0 0 1-1.02.432H1.784c-.393 0-.733-.144-1.02-.432a1.396 1.396 0 0 1-.432-1.02V1.784c0-.393.144-.733.432-1.02a1.396 1.396 0 0 1 1.02-.432h17.43zM3.465 17.762h3.041V8.049H3.465v9.713zm1.498-11.03c.484 0 .9-.173 1.248-.521.348-.348.522-.757.522-1.226s-.174-.877-.522-1.225a1.703 1.703 0 0 0-1.248-.522 1.63 1.63 0 0 0-1.226.522c-.332.348-.499.756-.499 1.225 0 .47.167.878.5 1.226a1.63 1.63 0 0 0 1.225.522zm12.799 11.03v-5.31c0-1.513-.212-2.618-.636-3.314-.574-.877-1.558-1.316-2.95-1.316-.696 0-1.316.167-1.86.5-.454.272-.787.62-.999 1.043h-.045V8.05H8.367v9.713h2.995V12.95c0-.757.106-1.331.318-1.725.303-.514.802-.771 1.498-.771s1.15.287 1.361.862c.152.363.227.938.227 1.725v4.72h2.996z"/>
</svg>
