<svg xmlns="http://www.w3.org/2000/svg" width="18" height="20" viewBox="0 0 18 20">
    <g fill="#FFF" fill-rule="nonzero">
        <path d="M8.182 13.941l5.727-4.582 2.455 1.964V.818A.818.818 0 0 0 15.545 0H.818A.818.818 0 0 0 0 .818v18c0 .452.366.818.818.818h7.364v-5.695zm-4.91-9.032h9.78v1.636h-9.78V4.91zm3.273 9.818H3.273v-1.636h3.272v1.636zm-3.272-4.09V9h6.545v1.636H3.273z"/>
        <path d="M18 14.727l-4.09-3.272-4.092 3.272v4.091c0 .452.366.818.818.818h2.455v-2.454h1.636v2.454h2.455a.818.818 0 0 0 .818-.818v-4.09z"/>
    </g>
</svg>
